# xmcd
#
# Track frame offsets:
#	150
#	12939
#	23197
#	35771
#	48153
#	59359
#	71917
#	83755
#	95432
#	114249
#	130423
#	139436
#	153299
#	167478
#	180732
#	192954
#	206961
#	219163
#	229254
#	239373
#
# Disc length: 3337 seconds
#
# Revision: 1
# Processed by: cddbd v1.5.2PL0 Copyright (c) Steve Scherf et al.
# Submitted via: EasyCDDAExtractor 11.1.0.1
#
DISCID=1b0d0714
DTITLE=Various Artist - The Country Selection
DYEAR=2008
DGENRE=country
TTITLE0=The Osmonds - Taking country to the city
TTITLE1=Johnny Cash - Train of love
TTITLE2=Jim Reeves - Bimbo
TTITLE3=Hank Williams - Lovesick blues
TTITLE4=Ernest Tubb - Somebody loves you
TTITLE5=Marty Robbins - I couldn't keep from crying
TTITLE6=Johnny Bond - The daughter of Jole Blon'
TTITLE7=Bob Wills and his Texas playboys - New San Antonio rose
TTITLE8=Elvis Presley - Old shep
TTITLE9=Willie Nelson - Georgia on my mind
TTITLE10=Frankie Laine and Doris Day - Sugarbush
TTITLE11=Tennessee Ernie Ford - Mule train
TTITLE12=Vernon Dalhart - The wreck of the old '97
TTITLE13=Hank Snow - I don't hurt anymore
TTITLE14=Al Dexter - Guitar polka
TTITLE15=Patsy Montana - I wanna be a cowboy's sweetheart
TTITLE16=Floyd Tillman - I love you so much it hurts
TTITLE17=Jim and Jesse - A memory of you
TTITLE18=Patsy Cline - Three cigarettes in an ashtray
TTITLE19=Johnny cash - Cry cry cry
EXTD=
EXTT0=
EXTT1=
EXTT2=
EXTT3=
EXTT4=
EXTT5=
EXTT6=
EXTT7=
EXTT8=
EXTT9=
EXTT10=
EXTT11=
EXTT12=
EXTT13=
EXTT14=
EXTT15=
EXTT16=
EXTT17=
EXTT18=
EXTT19=
PLAYORDER=
